<?xml version="1.0" encoding="utf-8"?>
<!-- Generator: Adobe Illustrator 25.4.1, SVG Export Plug-In . SVG Version: 6.00 Build 0)  -->
<svg version="1.1" id="Layer_1" xmlns="http://www.w3.org/2000/svg" xmlns:xlink="http://www.w3.org/1999/xlink" x="0px" y="0px"
	 viewBox="0 0 71.4 43.9" style="enable-background:new 0 0 71.4 43.9;" xml:space="preserve">
<style type="text/css">
	.st0{fill-rule:evenodd;clip-rule:evenodd;fill:#FFF200;}
	.st1{fill-rule:evenodd;clip-rule:evenodd;stroke:#231F20;stroke-width:0.1551;}
	.st2{fill:#FFFFFF;}
</style>
<rect x="0" y="0.3" class="st0" width="71.2" height="43.5"/>
<path d="M71.4,43.9H0V0h71.4V43.9z M0.3,43.6h70.8V0.3H0.3V43.6z"/>
<rect x="2.8" y="33.6" class="st1" width="65.8" height="7.2"/>
<path d="M2.4,4.9h7.1V17h0.1l4.8-12.2h7.3l-5.3,12.4l5.5,14.3h-7.7L9.6,18.2H9.5v13.3H2.4V4.9z"/>
<path d="M23.1,4.9h7.1v26.7h-7.1V4.9z"/>
<path d="M36.8,4.9h11L53,31.5h-7.4L44.9,27h-5.2L39,31.5h-7.4L36.8,4.9z M42.3,10L42.3,10l-1.8,11H44L42.3,10z"/>
<path d="M54.5,22.9c1,0.9,2.9,2.3,4.8,2.3c1.6,0,2.5-0.6,2.5-1.9c0-3.3-7.8-1.9-7.8-10.8c0-3.8,2.1-8.2,8.3-8.2
	c2.1,0,4.4,0.7,5.2,1.4V13c-1.3-1.1-2.7-1.8-4-1.8c-1.4,0-2.6,0.6-2.6,1.9c0,3.4,7.8,1.5,7.8,10.2c0,3.9-2.2,8.7-8.7,8.7
	c-2.5,0-4.2-0.6-5.5-1.5V22.9z"/>
<g>
	<path class="st2" d="M11.3,35.2h1.5c1.2,0,1.4,1.2,1.4,2c0,0.9-0.3,2.2-1.4,2.2h-1.5V35.2z M12,38.7h0.7c0.6,0,0.8-0.7,0.8-1.4
		c0-1.2-0.5-1.3-0.8-1.3H12V38.7z"/>
	<path class="st2" d="M25.7,35.8c0.2,0.3,0.4,0.8,0.4,1.5c0,2-1.2,2.2-1.6,2.2c-0.3,0-0.7-0.1-1.1-0.5l-0.4,0.5l-0.2-0.2l0.4-0.5
		c-0.2-0.3-0.4-0.8-0.4-1.5c0-2,1.2-2.2,1.6-2.2c0.3,0,0.7,0.1,1.1,0.5l0.4-0.5l0.2,0.2L25.7,35.8z M25.1,36.2
		c-0.2-0.3-0.4-0.3-0.6-0.3c-0.4,0-0.9,0.3-0.9,1.5c0,0.3,0,0.6,0.1,0.8L25.1,36.2z M23.8,38.4c0.2,0.3,0.4,0.3,0.7,0.3
		c0.4,0,0.9-0.3,0.9-1.5c0-0.4,0-0.6-0.1-0.8L23.8,38.4z"/>
	<path class="st2" d="M34.8,35.2h1.7c0.9,0,1.1,0.8,1.1,1.2c0,0.5-0.2,0.9-0.5,1c0.3,0.2,0.4,0.3,0.4,1.1c0,0.6,0,0.8,0.2,0.8v0.1
		h-0.8c0-0.2-0.1-0.4-0.1-0.8c0-0.6,0-0.8-0.6-0.8h-0.7v1.6h-0.7V35.2z M36.3,37.1c0.4,0,0.6-0.2,0.6-0.6c0-0.2-0.1-0.5-0.5-0.5
		h-0.9v1.1H36.3z"/>
	<path class="st2" d="M48.9,36h-1.8v0.9h1.7v0.7h-1.7v1.1H49v0.7h-2.6v-4.2h2.5V36z"/>
	<path class="st2" d="M57.7,35.2h1.7c0.9,0,1.1,0.8,1.1,1.2c0,0.5-0.2,0.9-0.5,1c0.3,0.2,0.4,0.3,0.4,1.1c0,0.6,0,0.8,0.2,0.8v0.1
		h-0.8c0-0.2-0.1-0.4-0.1-0.8c0-0.6,0-0.8-0.6-0.8h-0.7v1.6h-0.7V35.2z M59.2,37.1c0.4,0,0.6-0.2,0.6-0.6c0-0.2-0.1-0.5-0.5-0.5
		h-0.9v1.1H59.2z"/>
</g>
</svg>
